<mxfile host="app.diagrams.net" modified="2023-05-25T07:49:26.292Z" agent="Mozilla/5.0 (Windows NT 10.0; Win64; x64) AppleWebKit/537.36 (KHTML, like Gecko) Chrome/113.0.0.0 Safari/537.36" etag="5ZcSrkNKz9YLts6X_YE5" version="21.3.2" type="github">
  <diagram name="第 1 页" id="V1XWMgjDmzakIxOM_VR9">
    <mxGraphModel dx="719" dy="335" grid="0" gridSize="10" guides="1" tooltips="1" connect="1" arrows="1" fold="1" page="1" pageScale="1" pageWidth="827" pageHeight="1169" math="0" shadow="0">
      <root>
        <mxCell id="0" />
        <mxCell id="1" parent="0" />
        <mxCell id="VCuF3PONKFgWgKvEXEOh-10" value="菜单" style="rounded=0;whiteSpace=wrap;html=1;" vertex="1" parent="1">
          <mxGeometry x="329" y="208" width="120" height="60" as="geometry" />
        </mxCell>
        <mxCell id="VCuF3PONKFgWgKvEXEOh-11" value="菜单名称" style="ellipse;whiteSpace=wrap;html=1;" vertex="1" parent="1">
          <mxGeometry x="469" y="108" width="102" height="69" as="geometry" />
        </mxCell>
        <mxCell id="VCuF3PONKFgWgKvEXEOh-12" value="父id" style="ellipse;whiteSpace=wrap;html=1;" vertex="1" parent="1">
          <mxGeometry x="520" y="203.5" width="102" height="69" as="geometry" />
        </mxCell>
        <mxCell id="VCuF3PONKFgWgKvEXEOh-13" value="菜单地址" style="ellipse;whiteSpace=wrap;html=1;" vertex="1" parent="1">
          <mxGeometry x="159" y="203.5" width="102" height="69" as="geometry" />
        </mxCell>
        <mxCell id="VCuF3PONKFgWgKvEXEOh-14" value="菜单id" style="ellipse;whiteSpace=wrap;html=1;" vertex="1" parent="1">
          <mxGeometry x="200" y="108" width="102" height="69" as="geometry" />
        </mxCell>
        <mxCell id="VCuF3PONKFgWgKvEXEOh-15" value="" style="endArrow=none;html=1;rounded=0;entryX=1;entryY=0;entryDx=0;entryDy=0;exitX=0;exitY=1;exitDx=0;exitDy=0;" edge="1" parent="1" source="VCuF3PONKFgWgKvEXEOh-11" target="VCuF3PONKFgWgKvEXEOh-10">
          <mxGeometry width="50" height="50" relative="1" as="geometry">
            <mxPoint x="418" y="138" as="sourcePoint" />
            <mxPoint x="399" y="218" as="targetPoint" />
          </mxGeometry>
        </mxCell>
        <mxCell id="VCuF3PONKFgWgKvEXEOh-16" value="" style="endArrow=none;html=1;rounded=0;entryX=1;entryY=0.5;entryDx=0;entryDy=0;exitX=0;exitY=0.5;exitDx=0;exitDy=0;" edge="1" parent="1" source="VCuF3PONKFgWgKvEXEOh-12" target="VCuF3PONKFgWgKvEXEOh-10">
          <mxGeometry width="50" height="50" relative="1" as="geometry">
            <mxPoint x="428" y="148" as="sourcePoint" />
            <mxPoint x="409" y="228" as="targetPoint" />
          </mxGeometry>
        </mxCell>
        <mxCell id="VCuF3PONKFgWgKvEXEOh-17" value="" style="endArrow=none;html=1;rounded=0;entryX=0;entryY=0.5;entryDx=0;entryDy=0;exitX=1;exitY=0.5;exitDx=0;exitDy=0;" edge="1" parent="1" source="VCuF3PONKFgWgKvEXEOh-13" target="VCuF3PONKFgWgKvEXEOh-10">
          <mxGeometry width="50" height="50" relative="1" as="geometry">
            <mxPoint x="458" y="178" as="sourcePoint" />
            <mxPoint x="439" y="258" as="targetPoint" />
          </mxGeometry>
        </mxCell>
        <mxCell id="VCuF3PONKFgWgKvEXEOh-18" value="" style="endArrow=none;html=1;rounded=0;entryX=0;entryY=0;entryDx=0;entryDy=0;exitX=1;exitY=1;exitDx=0;exitDy=0;" edge="1" parent="1" source="VCuF3PONKFgWgKvEXEOh-14" target="VCuF3PONKFgWgKvEXEOh-10">
          <mxGeometry width="50" height="50" relative="1" as="geometry">
            <mxPoint x="468" y="188" as="sourcePoint" />
            <mxPoint x="449" y="268" as="targetPoint" />
          </mxGeometry>
        </mxCell>
        <mxCell id="VCuF3PONKFgWgKvEXEOh-19" value="菜单图标" style="ellipse;whiteSpace=wrap;html=1;" vertex="1" parent="1">
          <mxGeometry x="338" y="308" width="102" height="69" as="geometry" />
        </mxCell>
        <mxCell id="VCuF3PONKFgWgKvEXEOh-20" value="" style="endArrow=none;html=1;rounded=0;entryX=0.5;entryY=1;entryDx=0;entryDy=0;" edge="1" parent="1" source="VCuF3PONKFgWgKvEXEOh-19" target="VCuF3PONKFgWgKvEXEOh-10">
          <mxGeometry width="50" height="50" relative="1" as="geometry">
            <mxPoint x="297" y="177" as="sourcePoint" />
            <mxPoint x="339" y="218" as="targetPoint" />
          </mxGeometry>
        </mxCell>
      </root>
    </mxGraphModel>
  </diagram>
</mxfile>
